<?xml version="1.0" encoding="UTF-8"?>
<svg width="294px" height="111px" viewBox="0 0 294 111" version="1.1" xmlns="http://www.w3.org/2000/svg" xmlns:xlink="http://www.w3.org/1999/xlink">
    <!-- Generator: Sketch 53.2 (72643) - https://sketchapp.com -->
    <title>Artboard</title>
    <desc>Created with Sketch.</desc>
    <defs>
        <polygon id="path-1" points="8.93721195e-05 0.106711509 89.9231362 0.106711509 89.9231362 68.4380796 8.93721195e-05 68.4380796"></polygon>
        <polygon id="path-3" points="0.197698696 0.108981966 14.3949871 0.108981966 14.3949871 20.1276068 0.197698696 20.1276068"></polygon>
    </defs>
    <g id="Artboard" stroke="none" stroke-width="1" fill="none" fill-rule="evenodd">
        <g id="logo-whitebackground">
            <rect id="Rectangle" fill-rule="nonzero" x="-2.84217094e-14" y="0" width="294" height="110.994475"></rect>
            <g id="Group-4" transform="translate(21.657459, 21.116022)">
                <g id="Group-3" transform="translate(0.000000, 0.217640)">
                    <g id="Fill-1-Clipped">
                        <mask id="mask-2" fill="white">
                            <use xlink:href="#path-1"></use>
                        </mask>
                        <g id="path-1"></g>
                        <path d="M69.0437099,1.19211999 C68.3426807,0.492170343 67.4099254,0.106516898 66.4180192,0.106516898 L23.5034597,0.106516898 C22.5115536,0.106516898 21.579123,0.492170343 20.8774438,1.19211999 L1.08579907,20.9463987 C-0.361759688,22.3913828 -0.361759688,24.7422796 1.08547406,26.1872636 L42.3337485,67.3526067 C43.0351028,68.0525563 43.9675334,68.4382096 44.9594394,68.4382096 C45.9513454,68.4382096 46.883451,68.0525563 47.5851303,67.3526067 L88.83568,26.1872636 C89.5367092,25.487314 89.9231362,24.5567507 89.9231362,23.5668312 C89.9231362,22.577236 89.537034,21.6466727 88.83568,20.9463987 L69.0437099,1.19211999 Z" id="Fill-1" fill="#12739E" fill-rule="nonzero" mask="url(#mask-2)"></path>
                    </g>
                </g>
                <path d="M61.5273248,26.2267696 C61.5273248,30.2769416 61.5123747,34.3274381 61.5416247,38.3772858 C61.5477998,39.2533581 61.2159729,39.2439519 60.0358905,39.2439519 C57.7777772,39.2439519 55.827765,39.2351944 53.7178524,39.2351944 C52.6125207,39.2351944 52.2611935,39.3026594 52.2631436,38.4998905 C52.2806937,31.5218011 52.2670436,24.5437118 52.2946688,17.5656224 C52.2962938,17.1776985 52.499095,16.7103087 52.7623466,16.4180683 C53.649927,15.4323654 54.5852826,14.4859089 55.5537884,13.5796719 C55.84304,13.3091631 56.2232925,13.1589886 56.6191448,13.1430954 C57.961728,13.0892531 59.3082112,13.1489337 60.6517696,13.1096872 C61.3297233,13.0895774 61.5419496,13.337706 61.5383745,14.0029501 C61.5159493,18.0774485 61.5273248,22.1522712 61.5273248,26.2267696" id="Fill-4" fill="#FFFFFF" fill-rule="nonzero"></path>
                <path d="M50.3348094,19.3644412 C50.5233105,19.1957786 50.8242624,19.3200051 50.8379125,19.5723502 C50.8447375,19.6933332 50.8489625,19.7951794 50.8489625,19.8970257 C50.8512375,22.995876 50.8687877,26.095375 50.8288124,29.1939009 C50.8236124,29.5808518 50.602286,30.1286808 50.3348094,30.4082714 C48.8687255,31.9418034 47.3347163,33.4101407 45.8527073,34.9287526 C45.4367048,35.3552742 45.1653282,35.3847902 44.7265755,34.9443214 C39.4660937,29.6687509 34.1831867,24.4155607 28.93083,19.1322058 C28.6396282,18.8389924 28.435202,18.3368969 28.4144018,17.9207545 C28.3490764,16.6061595 28.4069268,15.2860506 28.3828766,13.9688608 C28.3741016,13.4846046 28.766054,13.101546 29.2512819,13.1125739 C30.5720899,13.1417655 31.8941979,13.1411168 33.2150059,13.1119252 C33.7762843,13.0995999 34.1792867,13.296481 34.5689641,13.6879727 C37.8956842,17.0281402 41.2373544,20.3533876 44.5754496,23.6825272 C45.5134053,24.6176314 45.2140785,24.2997673 46.9463389,22.776939 C47.9944702,21.8554575 48.9623261,20.8464013 49.8885817,19.8029638 C50.0328826,19.6404639 50.1609333,19.5198054 50.3348094,19.3644412" id="Fill-6" fill="#FFFFFF" fill-rule="nonzero"></path>
                <path d="M28.4306195,22.1056295 C28.4683197,21.870475 28.7507464,21.1666331 28.9294975,21.3245921 C29.0633983,21.4429803 29.1683739,21.5370421 29.2684745,21.6359692 C31.8941654,24.2265613 34.5302563,26.8074229 37.125397,29.4278554 C37.4107488,29.7158791 37.6541752,30.8848404 37.6626253,31.289955 C37.7139756,33.6804225 37.6665253,36.0731605 37.7009755,38.4646011 C37.7104005,39.1217364 37.4848492,39.291372 36.8540204,39.2835876 C34.31153,39.2524499 31.7680646,39.2527742 29.2252493,39.2829389 C28.5706953,39.2907233 28.3799191,39.046487 28.3815442,38.4276251 C28.3961692,33.1079428 28.3886942,27.7879363 28.3942192,22.468254 C28.3942192,22.3557042 28.4085193,22.2434787 28.4306195,22.1056295" id="Fill-8" fill="#FFFFFF" fill-rule="nonzero"></path>
            </g>
            <path d="M168.347486,21.4515309 L169.322817,21.4515309 C169.712819,21.4515309 169.972821,21.7110117 169.972821,22.100233 L169.972821,52.9865656 C169.972821,53.3757868 169.712819,53.6352677 169.322817,53.6352677 L166.344824,53.6352677 C165.954821,53.6352677 165.694819,53.3757868 165.694819,52.9865656 L165.694819,31.0675676 L153.666822,48.4443529 C153.380495,48.8465482 153.016493,48.8076261 152.769492,48.4443529 L140.741169,31.0675676 L140.741169,52.9865656 C140.741169,53.3757868 140.481167,53.6352677 140.091165,53.6352677 L137.113497,53.6352677 C136.723169,53.6352677 136.463168,53.3757868 136.463168,52.9865656 L136.463168,22.100233 C136.463168,21.7110117 136.723169,21.4515309 137.113497,21.4515309 L138.075503,21.4515309 C138.387829,21.4515309 138.660831,21.5942453 138.881833,21.8926483 L153.211494,41.864891 L167.554156,21.8926483 C167.762157,21.5942453 168.035484,21.4515309 168.347486,21.4515309" id="Fill-10" fill="#454C4C" fill-rule="nonzero"></path>
            <path d="M198.412605,41.7480273 L192.703945,28.5761296 L186.592609,41.7480273 L198.412605,41.7480273 Z M207.683936,53.6351704 L204.10794,53.6351704 C203.769938,53.6351704 203.509936,53.50543 203.366935,53.1551308 L199.907939,45.1741479 L185.006274,45.1741479 L181.300277,53.1551308 C181.157276,53.4665078 180.910274,53.6351704 180.558947,53.6351704 L177.385953,53.6351704 C176.91795,53.6351704 176.644949,53.3497414 176.86595,52.8697019 L191.533613,21.9317975 C191.663939,21.6200961 191.923941,21.4514336 192.274943,21.4514336 L193.315274,21.4514336 C193.653276,21.4514336 193.913278,21.6200961 194.056604,21.9317975 L208.165264,52.8697019 C208.373265,53.3497414 208.152264,53.6351704 207.683936,53.6351704 Z" id="Fill-12" fill="#454C4C" fill-rule="nonzero"></path>
            <path d="M240.089492,53.6353002 L236.253494,53.6353002 C235.941492,53.6353002 235.68149,53.5574559 235.447489,53.2850009 L221.130828,37.5432696 L235.330163,22.3211486 C235.55149,22.0483693 235.824491,21.970525 236.136493,21.970525 L239.673489,21.970525 C240.219493,21.970525 240.440494,22.3078502 240.050492,22.749292 L226.47516,37.3356849 L240.466819,52.8565332 C240.830822,53.2460788 240.648496,53.6353002 240.089492,53.6353002 M219.595843,22.6195516 L219.595843,52.986598 C219.595843,53.3368971 219.296516,53.6353002 218.945514,53.6353002 L215.967846,53.6353002 C215.616519,53.6353002 215.317842,53.3368971 215.317842,52.986598 L215.317842,22.6195516 C215.317842,22.2692524 215.616519,21.970525 215.967846,21.970525 L218.945514,21.970525 C219.296516,21.970525 219.595843,22.2692524 219.595843,22.6195516" id="Fill-14" fill="#454C4C" fill-rule="nonzero"></path>
            <path d="M272.494236,50.6504917 L272.494236,52.9864682 C272.494236,53.3756896 272.234234,53.6351704 271.844231,53.6351704 L250.752579,53.6351704 L248.997243,53.6351704 C248.646241,53.6351704 248.347239,53.3367674 248.347239,52.9864682 L248.347239,22.6194218 C248.347239,22.2691227 248.646241,21.9707197 248.997243,21.9707197 L251.974911,21.9707197 L271.323903,21.9707197 C271.714231,21.9707197 271.974233,22.2302005 271.974233,22.6194218 L271.974233,24.9553984 C271.974233,25.3446197 271.714231,25.6041006 271.323903,25.6041006 L252.62524,25.6041006 L252.62524,35.5188647 L269.243566,35.5188647 C269.633568,35.5188647 269.89357,35.7783455 269.89357,36.1549171 L269.89357,38.5038677 C269.89357,38.893089 269.633568,39.1525699 269.243566,39.1525699 L252.62524,39.1525699 L252.62524,50.0017895 L271.844231,50.0017895 C272.234234,50.0017895 272.494236,50.2612704 272.494236,50.6504917" id="Fill-16" fill="#454C4C" fill-rule="nonzero"></path>
            <path d="M151.734848,83.9928757 C151.734848,87.9966652 148.0438,89.7604865 143.916925,89.7604865 C140.825832,89.7604865 138.630769,88.7760808 136.731782,87.6275538 C136.493555,87.4877582 136.419455,87.3155278 136.534506,87.0696702 L137.184185,85.6499853 C137.290785,85.4287777 137.504637,85.3382836 137.751313,85.4777549 C139.461149,86.4624849 141.072508,87.463432 144.048226,87.463432 C146.942044,87.463432 148.898556,86.5361121 148.898556,84.3373365 C148.898556,78.9634875 137.035984,81.9663299 137.035984,74.869528 C137.035984,71.7109971 139.642175,69.1512183 144.525329,69.1512183 C147.714899,69.1512183 149.564485,70.1356239 151.036094,70.9562321 C151.23337,71.0629436 151.34842,71.2432829 151.225245,71.514116 L150.526166,73.0155372 C150.411115,73.2532866 150.238539,73.3272386 149.901511,73.1138156 C148.931706,72.4985216 147.065545,71.3827538 144.508754,71.3827538 C141.113458,71.3827538 139.74065,73.0071041 139.74065,74.6564293 C139.74065,79.4393106 151.734848,76.7647114 151.734848,83.9928757" id="Fill-18" fill="#454C4C" fill-rule="nonzero"></path>
            <path d="M175.729938,84.5425859 C173.847527,88.3001928 170.904309,89.7604215 167.328312,89.7604215 C162.066855,89.7604215 157.101475,85.8224751 157.101475,79.4557876 C157.101475,73.0894244 162.066855,69.1511535 167.328312,69.1511535 C170.904309,69.1511535 173.847527,70.6117064 175.729938,74.3693138 C175.861564,74.6398226 175.746513,74.8370281 175.532662,74.9353064 L174.085753,75.6326614 C173.871902,75.731264 173.649925,75.6900715 173.510499,75.4111294 C172.071716,72.5724088 169.868527,71.4485322 167.328312,71.4485322 C163.036986,71.4485322 159.937767,74.7137747 159.937767,79.4557876 C159.937767,84.1981251 163.036986,87.463367 167.328312,87.463367 C169.868527,87.463367 172.071716,86.3391663 173.510499,83.5007701 C173.649925,83.2215036 173.871902,83.1806355 174.085753,83.2792381 L175.532662,83.9765931 C175.746513,84.0748714 175.861564,84.2717523 175.729938,84.5425859" id="Fill-20" fill="#454C4C" fill-rule="nonzero"></path>
            <path d="M200.174083,69.8568117 L200.174083,89.0548286 C200.174083,89.27636 199.984932,89.4651324 199.762956,89.4651324 L197.880544,89.4651324 C197.658568,89.4651324 197.469417,89.27636 197.469417,89.0548286 L197.469417,80.3090254 L184.982191,80.3090254 L184.982191,89.0548286 C184.982191,89.27636 184.79304,89.4651324 184.571064,89.4651324 L182.688652,89.4651324 C182.466351,89.4651324 182.277525,89.27636 182.277525,89.0548286 L182.277525,69.8568117 C182.277525,69.6352799 182.466351,69.4465075 182.688652,69.4465075 L184.571064,69.4465075 C184.79304,69.4465075 184.982191,69.6352799 184.982191,69.8568117 L184.982191,78.0119709 L197.469417,78.0119709 L197.469417,69.8568117 C197.469417,69.6352799 197.658568,69.4465075 197.880544,69.4465075 L199.762956,69.4465075 C199.984932,69.4465075 200.174083,69.6352799 200.174083,69.8568117" id="Fill-22" fill="#454C4C" fill-rule="nonzero"></path>
            <path d="M224.445685,79.455885 C224.445685,74.713872 221.346466,71.4483052 217.05514,71.4483052 C212.763814,71.4483052 209.664595,74.713872 209.664595,79.455885 C209.664595,84.1978977 212.763814,87.4631402 217.05514,87.4631402 C221.346466,87.4631402 224.445685,84.1978977 224.445685,79.455885 M227.281977,79.455885 C227.281977,85.8222482 222.316272,89.760519 217.05514,89.760519 C211.794009,89.760519 206.828629,85.8222482 206.828629,79.455885 C206.828629,73.0891973 211.794009,69.1512508 217.05514,69.1512508 C222.316272,69.1512508 227.281977,73.0891973 227.281977,79.455885" id="Fill-24" fill="#454C4C" fill-rule="nonzero"></path>
            <path d="M250.266051,79.455885 C250.266051,74.713872 247.166833,71.4483052 242.875506,71.4483052 C238.58418,71.4483052 235.484962,74.713872 235.484962,79.455885 C235.484962,84.1978977 238.58418,87.4631402 242.875506,87.4631402 C247.166833,87.4631402 250.266051,84.1978977 250.266051,79.455885 M253.102343,79.455885 C253.102343,85.8222482 248.136963,89.760519 242.875506,89.760519 C237.614375,89.760519 232.648994,85.8222482 232.648994,79.455885 C232.648994,73.0891973 237.614375,69.1512508 242.875506,69.1512508 C248.136963,69.1512508 253.102343,73.0891973 253.102343,79.455885" id="Fill-26" fill="#454C4C" fill-rule="nonzero"></path>
            <g id="Group-30" transform="translate(258.258889, 69.337623)">
                <g id="Fill-28-Clipped">
                    <mask id="mask-4" fill="white">
                        <use xlink:href="#path-3"></use>
                    </mask>
                    <g id="path-3"></g>
                    <path d="M14.3950845,18.2405322 L14.3950845,19.7173027 C14.3950845,19.9634852 14.2306335,20.1276068 13.983957,20.1276068 L1.71870789,20.1276068 L0.60882618,20.1276068 C0.38684984,20.1276068 0.197698696,19.9388345 0.197698696,19.7173027 L0.197698696,0.519286094 C0.197698696,0.2977543 0.38684984,0.108981966 0.60882618,0.108981966 L2.49123757,0.108981966 C2.71321391,0.108981966 2.90236505,0.2977543 2.90236505,0.519286094 L2.90236505,17.8302281 L13.983957,17.8302281 C14.2306335,17.8302281 14.3950845,17.9943498 14.3950845,18.2405322" id="Fill-28" fill="#454C4C" fill-rule="nonzero" mask="url(#mask-4)"></path>
                </g>
            </g>
        </g>
    </g>
</svg>