<?xml version="1.0" encoding="UTF-8"?>
<svg width="198px" height="108px" viewBox="0 0 198 108" version="1.1" xmlns="http://www.w3.org/2000/svg" xmlns:xlink="http://www.w3.org/1999/xlink">
    <!-- Generator: Sketch 53.2 (72643) - https://sketchapp.com -->
    <title>Artboard</title>
    <desc>Created with Sketch.</desc>
    <defs>
        <linearGradient x1="17.4447494%" y1="11.6996305%" x2="76.0497551%" y2="78.4532626%" id="linearGradient-1">
            <stop stop-color="#387EB8" offset="0%"></stop>
            <stop stop-color="#366994" offset="100%"></stop>
        </linearGradient>
        <linearGradient x1="22.8659888%" y1="20.315846%" x2="85.8079878%" y2="88.7730019%" id="linearGradient-2">
            <stop stop-color="#FFE052" offset="0%"></stop>
            <stop stop-color="#FFC331" offset="100%"></stop>
        </linearGradient>
    </defs>
    <g id="Artboard" stroke="none" stroke-width="1" fill="none" fill-rule="evenodd">
        <g id="coding" transform="translate(7.000000, 0.000000)" fill-rule="nonzero">
            <g id="Group" transform="translate(112.000000, 21.000000)">
                <g id="Shape">
                    <path d="M2.9,14.4 C3.6,14.5 4.2,15.1 4.4,15.8 C4.6,16.3 4.7,16.7 5,17.2 C5.3,17.8 5.3,18.6 4.9,19.2 L4.4,20 C4.1,20.5 4.1,21.1 4.6,21.5 L4.6,21.5 C5,21.9 5.7,22 6.1,21.7 L6.9,21.2 C7.5,20.8 8.3,20.8 8.9,21.1 C9.3,21.3 9.8,21.5 10.3,21.7 C11,21.9 11.5,22.5 11.7,23.2 L11.9,24.1 C12,24.7 12.5,25.1 13.1,25.1 L13.1,25.1 C13.7,25.1 14.2,24.7 14.3,24.1 L14.5,23.2 C14.6,22.5 15.2,21.9 15.9,21.7 C16.4,21.5 16.8,21.4 17.3,21.1 C17.9,20.8 18.7,20.8 19.3,21.2 L20.1,21.7 C20.6,22 21.2,22 21.6,21.5 L21.6,21.5 C22,21.1 22.1,20.4 21.8,20 L21.3,19.2 C20.9,18.6 20.9,17.8 21.2,17.2 C21.4,16.8 21.6,16.3 21.8,15.8 C22,15.1 22.6,14.6 23.3,14.4 L24.2,14.2 C24.8,14.1 25.2,13.6 25.2,13 L25.2,13 C25.2,12.4 24.8,11.9 24.2,11.8 L23.3,11.6 C22.6,11.5 22,10.9 21.8,10.2 C21.6,9.7 21.5,9.3 21.2,8.8 C20.9,8.2 20.9,7.4 21.3,6.8 L21.8,6 C22.1,5.5 22.1,4.9 21.6,4.5 L21.6,4.5 C21.2,4.1 20.5,4 20.1,4.3 L19.3,4.8 C18.7,5.2 17.9,5.2 17.3,4.9 C16.9,4.7 16.4,4.5 15.9,4.3 C15.2,4.1 14.7,3.5 14.5,2.8 L14.3,1.9 C14.2,1.3 13.7,0.9 13.1,0.9 L13.1,0.9 C12.5,0.9 12,1.3 11.9,1.9 L11.7,2.8 C11.6,3.5 11,4.1 10.3,4.3 C9.8,4.5 9.4,4.6 8.9,4.9 C8.3,5.2 7.5,5.2 6.9,4.8 L6.1,4.3 C5.6,4 5,4 4.6,4.5 L4.6,4.5 C4.2,4.9 4.1,5.6 4.4,6 L4.9,6.8 C5.3,7.4 5.3,8.2 5,8.8 C4.8,9.2 4.6,9.7 4.4,10.2 C4.2,10.9 3.6,11.4 2.9,11.6 L2,11.8 C1.4,11.9 1,12.4 1,13 L1,13 C1,13.6 1.4,14.1 2,14.2 L2.9,14.4 Z M13,8 C15.8,8 18,10.2 18,13 C18,15.8 15.8,18 13,18 C10.2,18 8,15.8 8,13 C8,10.2 10.2,8 13,8 Z" fill="#FEFAD7"></path>
                    <path d="M13,26 C11.9,26 11,25.2 10.8,24.2 L10.6,23.3 C10.5,22.9 10.3,22.7 9.9,22.6 C9.4,22.4 8.9,22.2 8.4,22 C8.1,21.8 7.7,21.8 7.4,22 L6.6,22.5 C5.7,23.1 4.5,23 3.8,22.2 C3.1,21.5 2.9,20.3 3.5,19.4 L4,18.6 C4.2,18.3 4.2,17.9 4,17.6 C3.7,17.1 3.5,16.6 3.4,16.1 C3.3,15.8 3,15.5 2.7,15.4 L1.8,15.2 C0.8,15 4.26325641e-14,14.1 4.26325641e-14,13 C4.26325641e-14,11.9 0.8,11 1.8,10.8 L2.7,10.6 C3.1,10.5 3.3,10.3 3.4,9.9 C3.6,9.4 3.8,8.9 4,8.4 C4.2,8.1 4.2,7.7 4,7.4 L3.5,6.6 C2.9,5.7 3,4.5 3.8,3.8 C4.5,3.1 5.7,2.9 6.6,3.5 L7.4,4 C7.7,4.2 8.1,4.2 8.4,4 C8.9,3.7 9.4,3.5 9.9,3.4 C10.2,3.3 10.5,3 10.6,2.7 L10.8,1.8 C11,0.8 11.9,0 13,0 C14.1,0 15,0.8 15.2,1.8 L15.4,2.7 C15.5,3.1 15.7,3.3 16.1,3.4 C16.6,3.6 17.1,3.8 17.6,4 C17.9,4.2 18.3,4.2 18.6,4 L19.4,3.5 C20.3,2.9 21.5,3 22.2,3.8 C22.9,4.5 23.1,5.7 22.5,6.6 L22,7.4 C21.8,7.7 21.8,8.1 22,8.4 C22.3,8.9 22.5,9.4 22.6,9.9 C22.7,10.2 23,10.5 23.3,10.6 L24.2,10.8 C25.2,11 26,11.9 26,13 C26,14.1 25.2,15 24.2,15.2 L23.3,15.4 C22.9,15.5 22.7,15.7 22.6,16.1 C22.4,16.6 22.2,17.1 22,17.6 C21.8,17.9 21.8,18.3 22,18.6 L22.5,19.4 C23.1,20.3 23,21.5 22.2,22.2 C21.5,22.9 20.3,23.1 19.4,22.5 L18.6,22 C18.3,21.8 17.9,21.8 17.6,22 C17.1,22.3 16.6,22.5 16.1,22.6 C15.8,22.7 15.5,23 15.4,23.3 L15.2,24.2 C15,25.2 14.1,26 13,26 Z M8,19.8 C8.5,19.8 8.9,19.9 9.4,20.1 C9.8,20.3 10.2,20.5 10.6,20.6 C11.6,20.9 12.4,21.8 12.6,22.9 L12.8,23.8 C12.8,24 13.2,24 13.2,23.8 L13.4,22.9 C13.6,21.8 14.4,21 15.4,20.6 C15.8,20.5 16.2,20.3 16.6,20.1 C17.6,19.6 18.7,19.7 19.6,20.3 L20.4,20.8 C20.5,20.9 20.6,20.8 20.7,20.8 C20.8,20.7 20.8,20.6 20.7,20.5 L20.2,19.7 C19.6,18.8 19.5,17.6 20,16.7 C20.2,16.3 20.4,15.9 20.5,15.5 C20.8,14.5 21.7,13.7 22.8,13.5 L23.7,13.3 C23.8,13.3 23.9,13.2 23.9,13.1 C23.9,13 23.8,12.9 23.7,12.9 L22.8,12.7 C21.7,12.5 20.9,11.7 20.5,10.7 C20.4,10.3 20.2,9.9 20,9.5 C19.5,8.5 19.6,7.4 20.2,6.5 L20.7,5.7 C20.8,5.6 20.7,5.5 20.7,5.4 C20.6,5.3 20.5,5.3 20.4,5.4 L19.6,5.9 C18.7,6.5 17.5,6.6 16.6,6.1 C16.2,5.9 15.8,5.7 15.4,5.6 C14.4,5.3 13.6,4.4 13.4,3.3 L13.2,2.4 C13.2,2.2 12.8,2.2 12.8,2.4 L12.6,3.3 C12.4,4.4 11.6,5.2 10.6,5.6 C10.2,5.7 9.8,5.9 9.4,6.1 C8.4,6.6 7.3,6.5 6.4,5.9 L5.6,5.4 C5.5,5.3 5.4,5.4 5.3,5.4 C5.2,5.5 5.2,5.6 5.3,5.7 L5.8,6.5 C6.4,7.4 6.5,8.6 6,9.5 C5.8,9.9 5.6,10.3 5.5,10.7 C5.2,11.7 4.3,12.5 3.2,12.7 L2.3,12.9 C2.2,12.9 2.1,13 2.1,13.1 C2.1,13.2 2.2,13.3 2.3,13.3 L3.2,13.5 L3.2,13.5 C4.3,13.7 5.1,14.5 5.5,15.5 C5.6,15.9 5.8,16.3 6,16.7 C6.5,17.7 6.4,18.8 5.8,19.7 L5.3,20.5 C5.2,20.6 5.3,20.7 5.3,20.8 C5.4,20.9 5.5,20.9 5.6,20.8 L6.4,20.3 C6.8,19.9 7.4,19.8 8,19.8 Z M13,19 C9.7,19 7,16.3 7,13 C7,9.7 9.7,7 13,7 C16.3,7 19,9.7 19,13 C19,16.3 16.3,19 13,19 Z M13,9 C10.8,9 9,10.8 9,13 C9,15.2 10.8,17 13,17 C15.2,17 17,15.2 17,13 C17,10.8 15.2,9 13,9 Z" fill="#A7B0C4"></path>
                </g>
                <path d="M23.8,12.8 L22.9,12.6 C21.8,12.4 21,11.6 20.6,10.5 C20.5,10.1 20.3,9.7 20.1,9.3 C19.6,8.3 19.7,7.2 20.3,6.3 L20.8,5.5 C20.9,5.4 20.8,5.3 20.8,5.2 L18.6,7.4 C18.2,7.8 18.2,8.3 18.5,8.7 C19.7,10.2 20.2,12.2 19.8,14.4 C19.3,17.2 17.1,19.4 14.3,19.9 C12.2,20.3 10.1,19.7 8.6,18.6 C8.2,18.3 7.6,18.3 7.3,18.7 L5.1,20.9 C5.2,21 5.3,21 5.4,20.9 L6.2,20.4 C6.7,20.1 7.3,19.9 7.9,19.9 C8.4,19.9 8.8,20 9.3,20.2 C9.7,20.4 10.1,20.6 10.5,20.7 C11.6,21 12.4,21.9 12.6,23 L12.8,23.9 C12.8,24.1 13.2,24.1 13.2,23.9 L13.4,23 C13.6,21.9 14.4,21.1 15.5,20.7 C15.9,20.6 16.3,20.4 16.7,20.2 C17.7,19.7 18.8,19.8 19.7,20.4 L20.5,20.9 C20.6,21 20.7,20.9 20.8,20.9 C20.9,20.8 20.9,20.7 20.8,20.6 L20.3,19.8 C19.7,18.9 19.6,17.7 20.1,16.8 C20.3,16.4 20.5,16 20.6,15.6 C20.9,14.5 21.8,13.7 22.9,13.5 L23.8,13.3 C23.9,13.3 24,13.2 24,13.1 C24,13 23.9,12.8 23.8,12.8 Z" id="Path" fill="#FEECA8"></path>
                <path d="M7,13 C7,9.7 9.7,7 13,7 C14.7,7 16.2,7.7 17.2,8.8 C17.2,8.8 18,8 17,7.3 C15.9,6.5 14.5,6 13,6 C9.1,6 6,9.1 6,13 C6,14.5 6.4,15.9 7.3,17 C8,18 8.8,17.2 8.8,17.2 C7.7,16.2 7,14.7 7,13 Z" id="Path" fill="#FEECA8"></path>
            </g>
            <path d="M74,16 L55,16 L55,15 L50,15 C49.4,15 49,15.4 49,16 C49,16.6 49.4,17 50,17 L51,17 C51.6,17 52,17.4 52,18 C52,18.6 51.6,19 51,19 L47,19 C46.4,19 46,19.4 46,20 C46,20.6 46.4,21 47,21 L49,21 C49.6,21 50,21.4 50,22 C50,22.6 49.6,23 49,23 C48.4,23 48,23.4 48,24 C48,24.6 48.4,25 49,25 L55,25 L55,24 L74,24 C74.6,24 75,23.6 75,23 L75,17 C75,16.4 74.6,16 74,16 Z" id="Path" fill="#FEE279"></path>
            <circle id="Oval" fill="#EA9344" cx="184" cy="92" r="1"></circle>
            <circle id="Oval" fill="#EA9344" cx="182" cy="101" r="1"></circle>
            <circle id="Oval" fill="#FFCB5D" cx="101" cy="28" r="1"></circle>
            <circle id="Oval" fill="#FFCB5D" cx="9" cy="35" r="1"></circle>
            <circle id="Oval" fill="#FFCB5D" cx="1" cy="65" r="1"></circle>
            <circle id="Oval" fill="#FFCB5D" cx="32" cy="101" r="1"></circle>
            <circle id="Oval" fill="#FFCB5D" cx="107" cy="11" r="1"></circle>
            <circle id="Oval" fill="#FFCB5D" cx="156" cy="20" r="1"></circle>
            <circle id="Oval" fill="#F16B56" cx="182" cy="47" r="1"></circle>
            <circle id="Oval" fill="#F16B56" cx="172" cy="97" r="1"></circle>
            <circle id="Oval" fill="#F16B56" cx="42" cy="32" r="1"></circle>
            <circle id="Oval" fill="#F16B56" cx="120" cy="10" r="1"></circle>
            <circle id="Oval" fill="#F16B56" cx="105" cy="36" r="1"></circle>
            <circle id="Oval" fill="#F16B56" cx="9" cy="53" r="1"></circle>
            <circle id="Oval" fill="#F16B56" cx="42" cy="96" r="1"></circle>
            <path d="M112,22 C110.3,22 109,20.7 109,19 C109,17.3 110.3,16 112,16 C113.7,16 115,17.3 115,19 C115,20.7 113.7,22 112,22 Z M112,18 C111.4,18 111,18.4 111,19 C111,19.6 111.4,20 112,20 C112.6,20 113,19.6 113,19 C113,18.4 112.6,18 112,18 Z" id="Shape" fill="#F6B545"></path>
            <path d="M60,11 C58.3,11 57,9.7 57,8 C57,6.3 58.3,5 60,5 C61.7,5 63,6.3 63,8 C63,9.7 61.7,11 60,11 Z M60,7 C59.4,7 59,7.4 59,8 C59,8.6 59.4,9 60,9 C60.6,9 61,8.6 61,8 C61,7.4 60.6,7 60,7 Z" id="Shape" fill="#F6B545"></path>
            <path d="M28,35 C26.3,35 25,33.7 25,32 C25,30.3 26.3,29 28,29 C29.7,29 31,30.3 31,32 C31,33.7 29.7,35 28,35 Z M28,31 C27.4,31 27,31.4 27,32 C27,32.6 27.4,33 28,33 C28.6,33 29,32.6 29,32 C29,31.4 28.6,31 28,31 Z" id="Shape" fill="#F7964B"></path>
            <path d="M176,29 C174.3,29 173,27.7 173,26 C173,24.3 174.3,23 176,23 C177.7,23 179,24.3 179,26 C179,27.7 177.7,29 176,29 Z M176,25 C175.4,25 175,25.4 175,26 C175,26.6 175.4,27 176,27 C176.6,27 177,26.6 177,26 C177,25.4 176.6,25 176,25 Z" id="Shape" fill="#F7964B"></path>
            <path d="M144,101 C142.3,101 141,99.7 141,98 C141,96.3 142.3,95 144,95 C145.7,95 147,96.3 147,98 C147,99.7 145.7,101 144,101 Z M144,97 C143.4,97 143,97.4 143,98 C143,98.6 143.4,99 144,99 C144.6,99 145,98.6 145,98 C145,97.4 144.6,97 144,97 Z" id="Shape" fill="#F7964B"></path>
            <path d="M98,11 C96.3,11 95,9.7 95,8 C95,6.3 96.3,5 98,5 C99.7,5 101,6.3 101,8 C101,9.7 99.7,11 98,11 Z M98,7 C97.4,7 97,7.4 97,8 C97,8.6 97.4,9 98,9 C98.6,9 99,8.6 99,8 C99,7.4 98.6,7 98,7 Z" id="Shape" fill="#F16B56"></path>
            <path d="M157.9,33.5 L158.7,32.7 C159.1,32.3 159.1,31.7 158.7,31.3 C158.3,30.9 157.7,30.9 157.3,31.3 L156.5,32.1 L155.7,31.3 C155.3,30.9 154.7,30.9 154.3,31.3 C153.9,31.7 153.9,32.3 154.3,32.7 L155.1,33.5 L154.3,34.3 C153.9,34.7 153.9,35.3 154.3,35.7 C154.5,35.9 154.8,36 155,36 C155.2,36 155.5,35.9 155.7,35.7 L156.5,34.9 L157.3,35.7 C157.5,35.9 157.8,36 158,36 C158.2,36 158.5,35.9 158.7,35.7 C159.1,35.3 159.1,34.7 158.7,34.3 L157.9,33.5 Z" id="Path" fill="#F6B545"></path>
            <path d="M141.9,15.5 L142.7,14.7 C143.1,14.3 143.1,13.7 142.7,13.3 C142.3,12.9 141.7,12.9 141.3,13.3 L140.5,14.1 L139.7,13.3 C139.3,12.9 138.7,12.9 138.3,13.3 C137.9,13.7 137.9,14.3 138.3,14.7 L139.1,15.5 L138.3,16.3 C137.9,16.7 137.9,17.3 138.3,17.7 C138.5,17.9 138.8,18 139,18 C139.2,18 139.5,17.9 139.7,17.7 L140.5,16.9 L141.3,17.7 C141.5,17.9 141.8,18 142,18 C142.2,18 142.5,17.9 142.7,17.7 C143.1,17.3 143.1,16.7 142.7,16.3 L141.9,15.5 Z" id="Path" fill="#F16B56"></path>
            <path d="M78.9,2.5 L79.7,1.7 C80.1,1.3 80.1,0.7 79.7,0.3 C79.3,-0.1 78.7,-0.1 78.3,0.3 L77.5,1.1 L76.7,0.3 C76.3,-0.1 75.7,-0.1 75.3,0.3 C74.9,0.7 74.9,1.3 75.3,1.7 L76.1,2.5 L75.3,3.3 C74.9,3.7 74.9,4.3 75.3,4.7 C75.5,4.9 75.7,5 76,5 C76.3,5 76.5,4.9 76.7,4.7 L77.5,3.9 L78.3,4.7 C78.5,4.9 78.7,5 79,5 C79.3,5 79.5,4.9 79.7,4.7 C80.1,4.3 80.1,3.7 79.7,3.3 L78.9,2.5 Z" id="Path" fill="#F6B545"></path>
            <path d="M22.9,97.5 L23.7,96.7 C24.1,96.3 24.1,95.7 23.7,95.3 C23.3,94.9 22.7,94.9 22.3,95.3 L21.5,96.1 L20.7,95.3 C20.3,94.9 19.7,94.9 19.3,95.3 C18.9,95.7 18.9,96.3 19.3,96.7 L20.1,97.5 L19.3,98.3 C18.9,98.7 18.9,99.3 19.3,99.7 C19.5,99.9 19.8,100 20,100 C20.2,100 20.5,99.9 20.7,99.7 L21.5,98.9 L22.3,99.7 C22.5,99.9 22.8,100 23,100 C23.2,100 23.5,99.9 23.7,99.7 C24.1,99.3 24.1,98.7 23.7,98.3 L22.9,97.5 Z" id="Path" fill="#F6B545"></path>
            <path d="M37.9,16.5 L38.7,15.7 C39.1,15.3 39.1,14.7 38.7,14.3 C38.3,13.9 37.7,13.9 37.3,14.3 L36.5,15.1 L35.7,14.3 C35.3,13.9 34.7,13.9 34.3,14.3 C33.9,14.7 33.9,15.3 34.3,15.7 L35.1,16.5 L34.3,17.3 C33.9,17.7 33.9,18.3 34.3,18.7 C34.5,18.9 34.8,19 35,19 C35.2,19 35.5,18.9 35.7,18.7 L36.5,17.9 L37.3,18.7 C37.5,18.9 37.8,19 38,19 C38.2,19 38.5,18.9 38.7,18.7 C39.1,18.3 39.1,17.7 38.7,17.3 L37.9,16.5 Z" id="Path" fill="#F7964B"></path>
            <g id="Group" transform="translate(59.000000, 58.000000)">
                <path d="M62,49 L4,49 C2.3,49 1,47.7 1,46 L1,4 C1,2.3 2.3,1 4,1 L62,1 C63.7,1 65,2.3 65,4 L65,46 C65,47.7 63.7,49 62,49 Z" id="Path" fill="#D3E2EB"></path>
                <path d="M62,50 L4,50 C1.8,50 0,48.2 0,46 L0,4 C0,1.8 1.8,0 4,0 L62,0 C64.2,0 66,1.8 66,4 L66,46 C66,48.2 64.2,50 62,50 Z M4,2 C2.9,2 2,2.9 2,4 L2,46 C2,47.1 2.9,48 4,48 L62,48 C63.1,48 64,47.1 64,46 L64,4 C64,2.9 63.1,2 62,2 L4,2 Z" id="Shape" fill="#0F395A"></path>
            </g>
            <g id="Group" transform="translate(64.000000, 63.000000)">
                <rect id="Rectangle" fill="#071C2D" x="2" y="2" width="52" height="30"></rect>
                <path d="M55,34 L1,34 C0.4,34 0,33.6 0,33 L0,1 C0,0.4 0.4,0 1,0 L55,0 C55.6,0 56,0.4 56,1 L56,33 C56,33.6 55.6,34 55,34 Z M2,32 L54,32 L54,2 L2,2 L2,32 Z" id="Shape" fill="#0F395A"></path>
            </g>
            <path d="M97,101 L97,101 C97,102.1 96.1,103 95,103 L89,103 C87.9,103 87,102.1 87,101 L87,101 L55,101 L55,104 C55,105.7 56.3,107 58,107 L126,107 C127.7,107 129,105.7 129,104 L129,101 L97,101 Z" id="Path" fill="#D3E2EB"></path>
            <circle id="Oval" fill="#0F395A" cx="92" cy="99" r="1"></circle>
            <rect id="Rectangle" fill="#FFFFFF" x="66" y="65" width="13" height="30"></rect>
            <path d="M73,70 L69,70 C68.4,70 68,69.6 68,69 C68,68.4 68.4,68 69,68 L73,68 C73.6,68 74,68.4 74,69 C74,69.6 73.6,70 73,70 Z" id="Path" fill="#577280"></path>
            <path d="M73,80 L69,80 C68.4,80 68,79.6 68,79 C68,78.4 68.4,78 69,78 L73,78 C73.6,78 74,78.4 74,79 C74,79.6 73.6,80 73,80 Z" id="Path" fill="#577280"></path>
            <path d="M75,73 L71,73 C70.4,73 70,72.6 70,72 C70,71.4 70.4,71 71,71 L75,71 C75.6,71 76,71.4 76,72 C76,72.6 75.6,73 75,73 Z" id="Path" fill="#577280"></path>
            <path d="M74,76 L71,76 C70.4,76 70,75.6 70,75 C70,74.4 70.4,74 71,74 L74,74 C74.6,74 75,74.4 75,75 C75,75.6 74.6,76 74,76 Z" id="Path" fill="#577280"></path>
            <path d="M76,83 L71,83 C70.4,83 70,82.6 70,82 C70,81.4 70.4,81 71,81 L76,81 C76.6,81 77,81.4 77,82 C77,82.6 76.6,83 76,83 Z" id="Path" fill="#577280"></path>
            <path d="M73,86 L71,86 C70.4,86 70,85.6 70,85 C70,84.4 70.4,84 71,84 L73,84 C73.6,84 74,84.4 74,85 C74,85.6 73.6,86 73,86 Z" id="Path" fill="#577280"></path>
            <path d="M75,89 L71,89 C70.4,89 70,88.6 70,88 C70,87.4 70.4,87 71,87 L75,87 C75.6,87 76,87.4 76,88 C76,88.6 75.6,89 75,89 Z" id="Path" fill="#577280"></path>
            <path d="M74,92 L71,92 C70.4,92 70,91.6 70,91 C70,90.4 70.4,90 71,90 L74,90 C74.6,90 75,90.4 75,91 C75,91.6 74.6,92 74,92 Z" id="Path" fill="#577280"></path>
            <path d="M58,106 L126,106 C127.1,106 128,105.1 128,104 L95,104 L89,104 L56,104 C56,105.1 56.9,106 58,106 Z" id="Path" fill="#AFC3D7"></path>
            <path d="M122,60.3 L122,100 L123,100 L123,62 C123,61.3 122.6,60.6 122,60.3 Z" id="Path" fill="#AFC3D7"></path>
            <rect id="Rectangle" fill="#CDDAE4" x="66" y="65" width="13" height="1"></rect>
            <rect id="Rectangle" fill="#384C54" x="79" y="65" width="39" height="1"></rect>
            <path d="M129,100 L97,100 L87,100 L55,100 C54.4,100 54,100.4 54,101 L54,104 C54,106.2 55.8,108 58,108 L126,108 C128.2,108 130,106.2 130,104 L130,101 C130,100.4 129.6,100 129,100 Z M128,104 C128,105.1 127.1,106 126,106 L58,106 C56.9,106 56,105.1 56,104 L56,102 L86.2,102 C86.6,103.2 87.7,104 89,104 L95,104 C96.3,104 97.4,103.2 97.8,102 L128,102 L128,104 Z" id="Shape" fill="#0F395A"></path>
            <g id="Group" transform="translate(122.000000, 34.000000)">
                <g>
                    <path d="M25,7 C24.6,7 24.2,7 23.9,7.1 C24,6.7 24,6.4 24,6 C24,3.2 21.8,1 19,1 C16.7,1 14.9,2.5 14.2,4.6 C13.5,4.3 12.8,4 12,4 C9.2,4 7,6.2 7,9 C7,9 7,9.1 7,9.1 C6.7,9 6.3,9 6,9 C3.2,9 1,11.2 1,14 C1,16.8 3.2,19 6,19 L25,19 C28.3,19 31,16.3 31,13 C31,9.7 28.3,7 25,7 Z" id="Path" fill="#D3E2EB"></path>
                    <path d="M25,20 L6,20 C2.7,20 0,17.3 0,14 C0,10.7 2.7,7.9 6.1,8 C6.6,5.2 9,3 12,3 C12.6,3 13.1,3.1 13.7,3.3 C14.7,1.3 16.7,0 19,0 C22.3,0 25,2.7 25,6 C28.9,6 32,9.1 32,13 C32,16.9 28.9,20 25,20 Z M6,10 C3.8,10 2,11.8 2,14 C2,16.2 3.8,18 6,18 L25,18 C27.8,18 30,15.8 30,13 C30,9.9 27.3,7.5 24.1,8.1 C23.8,8.2 23.4,8.1 23.2,7.8 C23,7.5 22.9,7.2 22.9,6.9 C23,6.6 23,6.3 23,6 C23,3.8 21.2,2 19,2 C17.2,2 15.7,3.1 15.2,4.8 C15.1,5.1 14.9,5.3 14.6,5.4 C14.3,5.5 14,5.5 13.8,5.4 C13.2,5.1 12.6,5 12,5 C9.8,5 8,6.8 8,8.9 C8,8.9 8,9 8,9 C8,9.3 7.9,9.6 7.6,9.8 C7.4,10 7.1,10.1 6.8,10 C6.5,10 6.3,10 6,10 Z" id="Shape" fill="#0F395A"></path>
                </g>
                <path d="M28,9 C28.6,9.8 29,10.9 29,12 C29,14.8 26.8,17 24,17 L22,17 L3.3,17 C4,17.6 4.9,18 5.9,18 L23.9,18 C24.1,18 24.7,18 24.9,18 C27.7,18 29.9,15.8 29.9,13 C30,11.4 29.2,9.9 28,9 Z" id="Path" fill="#AFC3D7"></path>
                <path d="M31,14 C30.4,14 30,13.6 30,13 C30,10.2 27.8,8 25,8 C23.3,8 21.8,8.8 20.8,10.2 C20.5,10.7 19.9,10.8 19.4,10.5 C18.9,10.2 18.8,9.6 19.1,9.1 C20.4,7.1 22.6,6 24.9,6 C28.8,6 31.9,9.1 31.9,13 C32,13.6 31.6,14 31,14 Z" id="Path" fill="#0F395A"></path>
                <path d="M16.6,8 C16.2,8 15.8,7.8 15.7,7.4 C15.1,5.9 13.6,5 12,5 C11.4,5 11,4.6 11,4 C11,3.4 11.4,3 12,3 C14.4,3 16.5,4.4 17.5,6.6 C17.7,7.1 17.5,7.7 17,7.9 C16.9,8 16.7,8 16.6,8 Z" id="Path" fill="#0F395A"></path>
                <path d="M10.6,13 C10.2,13 9.8,12.8 9.7,12.4 C9.1,10.9 7.6,10 6,10 C5.4,10 5,9.6 5,9 C5,8.4 5.4,8 6,8 C8.4,8 10.5,9.4 11.5,11.6 C11.7,12.1 11.5,12.7 11,12.9 C10.9,13 10.7,13 10.6,13 Z" id="Path" fill="#0F395A"></path>
                <path d="M19,20 C16.8,20 15,18.2 15,16 C15,15.4 15.4,15 16,15 C16.6,15 17,15.4 17,16 C17,17.1 17.9,18 19,18 C19.6,18 20,18.4 20,19 C20,19.6 19.6,20 19,20 Z" id="Path" fill="#0F395A"></path>
            </g>
            <path d="M136,73 L128,73 C127.4,73 127,72.6 127,72 C127,71.4 127.4,71 128,71 L136,71 C136.6,71 137,70.6 137,70 L137,56 C137,55.4 137.4,55 138,55 C138.6,55 139,55.4 139,56 L139,70 C139,71.7 137.7,73 136,73 Z" id="Path" fill="#CAD5E3"></path>
            <path d="M134,69 L128,69 C127.4,69 127,68.6 127,68 C127,67.4 127.4,67 128,67 L133,67 L133,57 L132,57 C131.4,57 131,56.6 131,56 C131,55.4 131.4,55 132,55 L134,55 C134.6,55 135,55.4 135,56 L135,68 C135,68.6 134.6,69 134,69 Z" id="Path" fill="#CAD5E3"></path>
            <path d="M137,77 L128,77 C127.4,77 127,76.6 127,76 C127,75.4 127.4,75 128,75 L137,75 C139.2,75 141,73.2 141,71 L141,56 C141,55.4 141.4,55 142,55 L144,55 C144.6,55 145,55.4 145,56 C145,56.6 144.6,57 144,57 L143,57 L143,71 C143,74.3 140.3,77 137,77 Z" id="Path" fill="#CAD5E3"></path>
            <g id="Group" transform="translate(16.000000, 43.000000)">
                <g>
                    <path d="M31,27 L3,27 C1.9,27 1,26.1 1,25 L1,3 C1,1.9 1.9,1 3,1 L31,1 C32.1,1 33,1.9 33,3 L33,25 C33,26.1 32.1,27 31,27 Z" id="Path" fill="#FFFFFF"></path>
                    <path d="M31,28 L3,28 C1.3,28 0,26.7 0,25 L0,3 C0,1.3 1.3,0 3,0 L31,0 C32.7,0 34,1.3 34,3 L34,25 C34,26.7 32.7,28 31,28 Z M3,2 C2.4,2 2,2.4 2,3 L2,25 C2,25.6 2.4,26 3,26 L31,26 C31.6,26 32,25.6 32,25 L32,3 C32,2.4 31.6,2 31,2 L3,2 Z" id="Shape" fill="#A7B0C4"></path>
                </g>
                <g>
                    <path d="M33,7 L1,7 L1,3 C1,1.9 1.9,1 3,1 L31,1 C32.1,1 33,1.9 33,3 L33,7 Z" id="Path" fill="#D3E2EB"></path>
                    <path d="M33,8 L1,8 C0.4,8 0,7.6 0,7 L0,3 C0,1.3 1.3,0 3,0 L31,0 C32.7,0 34,1.3 34,3 L34,7 C34,7.6 33.6,8 33,8 Z M2,6 L32,6 L32,3 C32,2.4 31.6,2 31,2 L3,2 C2.4,2 2,2.4 2,3 L2,6 Z" id="Shape" fill="#A7B0C4"></path>
                </g>
                <g transform="translate(6.000000, 5.000000)">
                    <path d="M31,27 L3,27 C1.9,27 1,26.1 1,25 L1,3 C1,1.9 1.9,1 3,1 L31,1 C32.1,1 33,1.9 33,3 L33,25 C33,26.1 32.1,27 31,27 Z" id="Path" fill="#FFFFFF"></path>
                    <path d="M31,28 L3,28 C1.3,28 0,26.7 0,25 L0,3 C0,1.3 1.3,0 3,0 L31,0 C32.7,0 34,1.3 34,3 L34,25 C34,26.7 32.7,28 31,28 Z M3,2 C2.4,2 2,2.4 2,3 L2,25 C2,25.6 2.4,26 3,26 L31,26 C31.6,26 32,25.6 32,25 L32,3 C32,2.4 31.6,2 31,2 L3,2 Z" id="Shape" fill="#0F395A"></path>
                </g>
                <g transform="translate(6.000000, 5.000000)">
                    <path d="M33,7 L1,7 L1,3 C1,1.9 1.9,1 3,1 L31,1 C32.1,1 33,1.9 33,3 L33,7 Z" id="Path" fill="#D3E2EB"></path>
                    <path d="M33,8 L1,8 C0.4,8 0,7.6 0,7 L0,3 C0,1.3 1.3,0 3,0 L31,0 C32.7,0 34,1.3 34,3 L34,7 C34,7.6 33.6,8 33,8 Z M2,6 L32,6 L32,3 C32,2.4 31.6,2 31,2 L3,2 C2.4,2 2,2.4 2,3 L2,6 Z" id="Shape" fill="#0F395A"></path>
                </g>
                <path d="M18,26 C17.7,26 17.5,25.9 17.3,25.7 L14.3,22.7 C13.9,22.3 13.9,21.7 14.3,21.3 L17.3,18.3 C17.7,17.9 18.3,17.9 18.7,18.3 C19.1,18.7 19.1,19.3 18.7,19.7 L16.4,22 L18.7,24.3 C19.1,24.7 19.1,25.3 18.7,25.7 C18.5,25.9 18.3,26 18,26 Z" id="Path" fill="#0F395A"></path>
                <path d="M28,26 C27.7,26 27.5,25.9 27.3,25.7 C26.9,25.3 26.9,24.7 27.3,24.3 L29.6,22 L27.3,19.7 C26.9,19.3 26.9,18.7 27.3,18.3 C27.7,17.9 28.3,17.9 28.7,18.3 L31.7,21.3 C32.1,21.7 32.1,22.3 31.7,22.7 L28.7,25.7 C28.5,25.9 28.3,26 28,26 Z" id="Path" fill="#0F395A"></path>
                <circle id="Oval" fill="#0F395A" cx="10" cy="9" r="1"></circle>
                <circle id="Oval" fill="#0F395A" cx="13" cy="9" r="1"></circle>
                <circle id="Oval" fill="#0F395A" cx="16" cy="9" r="1"></circle>
                <circle id="Oval" fill="#A7B0C4" cx="4" cy="4" r="1"></circle>
                <circle id="Oval" fill="#A7B0C4" cx="7" cy="4" r="1"></circle>
                <circle id="Oval" fill="#A7B0C4" cx="10" cy="4" r="1"></circle>
                <path d="M21,27 C20.9,27 20.7,27 20.6,26.9 C20.1,26.7 19.9,26.1 20.2,25.6 L24.2,17.6 C24.4,17.1 25,16.9 25.5,17.2 C26,17.4 26.2,18 25.9,18.5 L21.9,26.5 C21.7,26.8 21.4,27 21,27 Z" id="Path" fill="#0F395A"></path>
            </g>
            <g id="Group" transform="translate(51.000000, 33.000000)">
                <g>
                    <path d="M3,1 C1.9,1 1,1.9 1,3 L1,16 L1,19 L3.9,16.8 C4.6,16.3 5.4,16 6.3,16 L23,16 C24.1,16 25,15.1 25,14 L25,3 C25,1.9 24.1,1 23,1 L3,1 Z" id="Path" fill="#F6B545"></path>
                    <path d="M1,20 C0.8,20 0.7,20 0.6,19.9 C0.2,19.7 0,19.4 0,19 L0,3 C0,1.3 1.3,0 3,0 L23,0 C24.7,0 26,1.3 26,3 L26,14 C26,15.7 24.7,17 23,17 L6.3,17 C5.7,17 5,17.2 4.5,17.6 L1.6,19.8 C1.4,19.9 1.2,20 1,20 Z M3,2 C2.4,2 2,2.4 2,3 L2,17 L3.3,16 C4.2,15.4 5.2,15 6.3,15 L23,15 C23.6,15 24,14.6 24,14 L24,3 C24,2.4 23.6,2 23,2 L3,2 Z" id="Shape" fill="#0F395A"></path>
                </g>
                <g transform="translate(5.000000, 5.000000)" fill="#0F395A" id="Path">
                    <path d="M0.4,3.2 C0.4,1.7 1.4,0.3 3.2,0.3 C3.9,0.3 4.4,0.5 5,1 C5.2,1.2 5.2,1.6 5,1.8 C4.8,2 4.5,2 4.3,1.8 C4,1.5 3.6,1.4 3.2,1.4 C2,1.4 1.4,2.3 1.4,3.2 C1.4,4.2 2,5.1 3.2,5.1 C3.7,5.1 4.1,4.9 4.4,4.6 C4.6,4.4 5,4.5 5.1,4.7 C5.2,4.9 5.3,5.2 5,5.5 C4.4,6 3.8,6.1 3.1,6.1 C1.2,6.1 0.4,4.7 0.4,3.2 Z"></path>
                    <path d="M6.1,1.7 C6.3,0.1 8.6,-0.1 9.7,0.7 C10.2,1.1 9.7,1.8 9.2,1.5 C8.6,1.1 7.3,0.9 7.1,1.8 C6.9,3.1 10.4,2.4 10.3,4.5 C10.2,6.5 7.3,6.6 6.2,5.7 C6,5.4 6,5 6.1,4.8 C6.3,4.6 6.5,4.5 6.8,4.7 C7.5,5.1 9.1,5.5 9.3,4.3 C9.2,3.2 5.8,3.9 6.1,1.7 Z"></path>
                    <path d="M11.1,1.7 C11.3,0.1 13.6,-0.1 14.7,0.7 C15.2,1.1 14.7,1.8 14.2,1.5 C13.6,1.1 12.3,0.9 12.1,1.8 C11.9,3.1 15.4,2.4 15.3,4.5 C15.2,6.5 12.3,6.6 11.2,5.7 C11,5.4 11,5 11.2,4.8 C11.4,4.6 11.6,4.5 11.9,4.7 C12.6,5.1 14.2,5.5 14.4,4.3 C14.2,3.2 10.9,3.9 11.1,1.7 Z"></path>
                </g>
            </g>
            <g id="Group" transform="translate(2.000000, 70.000000)">
                <g>
                    <path d="M27,20 C28.1,20 29,19.1 29,18 L29,5 L29,2 L26.1,4.2 C25.4,4.7 24.6,5 23.7,5 L3,5 C1.9,5 1,5.9 1,7 L1,18 C1,19.1 1.9,20 3,20 L27,20 Z" id="Path" fill="#F48576"></path>
                    <path d="M27,21 L3,21 C1.3,21 0,19.7 0,18 L0,7 C0,5.3 1.3,4 3,4 L23.7,4 C24.3,4 25,3.8 25.5,3.4 L28.4,1.2 C28.7,1 29.1,0.9 29.4,1.1 C29.7,1.3 30,1.6 30,2 L30,18 C30,19.7 28.7,21 27,21 Z M3,6 C2.4,6 2,6.4 2,7 L2,18 C2,18.6 2.4,19 3,19 L27,19 C27.6,19 28,18.6 28,18 L28,4 L26.7,5 C25.8,5.6 24.8,6 23.7,6 L3,6 Z" id="Shape" fill="#0F395A"></path>
                </g>
                <g transform="translate(4.000000, 9.000000)" fill="#0F395A" id="Path">
                    <path d="M0.6,5.5 L0.6,1 C0.6,0.7 0.8,0.5 1.2,0.5 C1.5,0.5 1.7,0.7 1.7,1 L1.7,2.7 L4.3,2.7 L4.3,1 C4.3,0.7 4.6,0.5 4.8,0.5 C5.1,0.5 5.3,0.7 5.3,1 L5.3,5.5 C5.3,5.8 5.1,6 4.8,6 C4.5,6 4.3,5.8 4.3,5.5 L4.3,3.7 L1.7,3.7 L1.7,5.5 C1.7,5.8 1.5,6 1.2,6 C0.8,6 0.6,5.8 0.6,5.5 Z"></path>
                    <path d="M7.9,1.5 L6.5,1.5 C5.8,1.5 5.8,0.5 6.5,0.5 L10.3,0.5 C11,0.5 11,1.5 10.3,1.5 L9,1.5 L9,5.5 C9,6.2 7.9,6.2 7.9,5.5 L7.9,1.5 Z"></path>
                    <path d="M12.6,2.5 L12.6,5.5 C12.6,5.9 12.3,6.1 12,6.1 C11.7,6.1 11.5,5.9 11.5,5.5 L11.5,1 C11.5,0.6 11.9,0.4 12,0.4 C12.2,0.4 12.4,0.5 12.5,0.7 L14.3,3.1 L16.1,0.6 C16.4,0.3 17,0.4 17,1 L17,5.5 C17,5.9 16.8,6.1 16.5,6.1 C16.2,6.1 16,5.9 16,5.5 L16,2.5 L14.7,4.2 C14.4,4.6 14.1,4.6 13.8,4.2 L12.6,2.5 Z"></path>
                    <path d="M18.2,0.9 C18.2,0.6 18.4,0.4 18.7,0.4 C19,0.4 19.2,0.6 19.2,0.9 L19.2,4.9 L21.4,4.9 C22.2,4.9 22.2,5.9 21.4,5.9 L18.8,5.9 C18.5,5.9 18.3,5.7 18.3,5.4 L18.3,0.9 L18.2,0.9 Z"></path>
                </g>
            </g>
            <path d="M56,85 L41,85 C39.3,85 38,83.7 38,82 L38,79 C38,78.4 38.4,78 39,78 C39.6,78 40,78.4 40,79 L40,82 C40,82.6 40.4,83 41,83 L56,83 C56.6,83 57,83.4 57,84 C57,84.6 56.6,85 56,85 Z" id="Path" fill="#0F395A"></path>
            <g id="Group" transform="translate(151.000000, 79.000000)">
                <path d="M6,17 L6,17 C3.2,17 1,14.8 1,12 L1,6 C1,3.2 3.2,1 6,1 L6,1 C8.8,1 11,3.2 11,6 L11,12 C11,14.8 8.8,17 6,17 Z" id="Path" fill="#ADD7F3"></path>
                <path d="M6,18 C2.7,18 0,15.3 0,12 L0,6 C0,2.7 2.7,0 6,0 C9.3,0 12,2.7 12,6 L12,12 C12,15.3 9.3,18 6,18 Z M6,2 C3.8,2 2,3.8 2,6 L2,12 C2,14.2 3.8,16 6,16 C8.2,16 10,14.2 10,12 L10,6 C10,3.8 8.2,2 6,2 Z" id="Shape" fill="#0F395A"></path>
            </g>
            <path d="M160,82.4 L160,90 C160,92.2 158.2,94 156,94 C155.2,94 154.4,93.7 153.7,93.3 C154.4,94.3 155.6,95 157,95 C159.2,95 161,93.2 161,91 L161,85 C161,84 160.6,83.1 160,82.4 Z" id="Path" fill="#72B7E5"></path>
            <circle id="Oval" fill="#0F395A" cx="157" cy="85" r="1"></circle>
            <path d="M142,92 L128,92 C127.4,92 127,91.6 127,91 C127,90.4 127.4,90 128,90 L142,90 C143.7,90 145,88.7 145,87 L145,76.5 C145,72.9 147.9,70 151.5,70 C155.1,70 158,72.9 158,76.5 L158,80 C158,80.6 157.6,81 157,81 C156.4,81 156,80.6 156,80 L156,76.5 C156,74 154,72 151.5,72 C149,72 147,74 147,76.5 L147,87 C147,89.8 144.8,92 142,92 Z" id="Path" fill="#0F395A"></path>
            <g id="Group" transform="translate(100.000000, 49.000000)">
                <g>
                    <circle id="Oval" fill="#F47423" cx="9" cy="9" r="7"></circle>
                    <path d="M9,18 C4,18 0,14 0,9 C0,4 4,0 9,0 C14,0 18,4 18,9 C18,14 14,18 9,18 Z M9,2 C5.1,2 2,5.1 2,9 C2,12.9 5.1,16 9,16 C12.9,16 16,12.9 16,9 C16,5.1 12.9,2 9,2 Z" id="Shape" fill="#0F395A"></path>
                </g>
                <path d="M8,12 C7.7,12 7.5,11.9 7.3,11.7 L5.3,9.7 C4.9,9.3 4.9,8.7 5.3,8.3 C5.7,7.9 6.3,7.9 6.7,8.3 L8,9.6 L11.3,6.3 C11.7,5.9 12.3,5.9 12.7,6.3 C13.1,6.7 13.1,7.3 12.7,7.7 L8.7,11.7 C8.5,11.9 8.3,12 8,12 Z" id="Path" fill="#FFFFFF"></path>
            </g>
            <circle id="Oval" fill="#0F395A" cx="165" cy="48" r="1"></circle>
            <circle id="Oval" fill="#0F395A" cx="168" cy="48" r="1"></circle>
            <circle id="Oval" fill="#0F395A" cx="159" cy="48" r="1"></circle>
            <circle id="Oval" fill="#0F395A" cx="156" cy="48" r="1"></circle>
            <circle id="Oval" fill="#0F395A" cx="162" cy="48" r="1"></circle>
            <circle id="Oval" fill="#0F395A" cx="171" cy="51" r="1"></circle>
            <circle id="Oval" fill="#0F395A" cx="171" cy="48" r="1"></circle>
            <circle id="Oval" fill="#0F395A" cx="171" cy="45" r="1"></circle>
            <circle id="Oval" fill="#0F395A" cx="171" cy="42" r="1"></circle>
            <circle id="Oval" fill="#0F395A" cx="171" cy="84" r="1"></circle>
            <circle id="Oval" fill="#0F395A" cx="171" cy="87" r="1"></circle>
            <circle id="Oval" fill="#0F395A" cx="171" cy="81" r="1"></circle>
            <g id="Group" transform="translate(86.000000, 43.000000)">
                <rect id="Rectangle" fill="#F6B545" x="2" y="2" width="6" height="8"></rect>
                <path d="M9,12 L1,12 C0.4,12 0,11.6 0,11 L0,1 C0,0.4 0.4,0 1,0 L9,0 C9.6,0 10,0.4 10,1 L10,11 C10,11.6 9.6,12 9,12 Z M2,10 L8,10 L8,2 L2,2 L2,10 Z" id="Shape" fill="#0F395A"></path>
            </g>
            <g id="Group" transform="translate(83.000000, 40.000000)">
                <path d="M4,7 L4,7 C2.3,7 1,5.7 1,4 L1,1 L4,1 L4,7 Z" id="Path" fill="#D3E2EB"></path>
                <path d="M4,8 C1.8,8 0,6.2 0,4 L0,1 C0,0.4 0.4,0 1,0 L4,0 C4.6,0 5,0.4 5,1 L5,7 C5,7.6 4.6,8 4,8 Z M2,2 L2,4 C2,4.7 2.4,5.4 3,5.7 L3,2 L2,2 Z" id="Shape" fill="#0F395A"></path>
            </g>
            <g id="Group" transform="translate(94.000000, 40.000000)">
                <path d="M1,7 L1,7 C2.7,7 4,5.7 4,4 L4,1 L1,1 L1,7 Z" id="Path" fill="#D3E2EB"></path>
                <path d="M1,8 C0.4,8 0,7.6 0,7 L0,1 C0,0.4 0.4,0 1,0 L4,0 C4.6,0 5,0.4 5,1 L5,4 C5,6.2 3.2,8 1,8 Z M2,2 L2,5.7 C2.6,5.4 3,4.7 3,4 L3,2 L2,2 Z" id="Shape" fill="#0F395A"></path>
            </g>
            <g id="Group" transform="translate(82.000000, 36.000000)">
                <rect id="Rectangle" fill="#D3E2EB" x="2" y="2" width="14" height="2"></rect>
                <path d="M17,6 L1,6 C0.4,6 0,5.6 0,5 L0,1 C0,0.4 0.4,0 1,0 L17,0 C17.6,0 18,0.4 18,1 L18,5 C18,5.6 17.6,6 17,6 Z M2,4 L16,4 L16,2 L2,2 L2,4 Z" id="Shape" fill="#0F395A"></path>
            </g>
            <path d="M91,37 C90.4,37 90,36.6 90,36 L90,20 C90,19.4 90.4,19 91,19 C91.6,19 92,19.4 92,20 L92,36 C92,36.6 91.6,37 91,37 Z" id="Path" fill="#0F395A"></path>
            <path d="M91,38 C89.9,38 89,37.1 89,36 L89,33 C89,31.9 89.9,31 91,31 C92.1,31 93,31.9 93,33 L93,36 C93,37.1 92.1,38 91,38 Z" id="Path" fill="#0F395A"></path>
            <g id="Group" transform="translate(75.000000, 17.000000)">
                <rect id="Rectangle" fill="#D3E2EB" x="2" y="2" width="6" height="2"></rect>
                <path d="M9,6 L1,6 C0.4,6 0,5.6 0,5 L0,1 C0,0.4 0.4,0 1,0 L9,0 C9.6,0 10,0.4 10,1 L10,5 C10,5.6 9.6,6 9,6 Z M2,4 L8,4 L8,2 L2,2 L2,4 Z" id="Shape" fill="#0F395A"></path>
            </g>
            <path d="M74,26 L52,26 C51.4,26 51,25.6 51,25 C51,24.4 51.4,24 52,24 L74,24 C74.6,24 75,23.6 75,23 L75,17 C75,16.4 74.6,16 74,16 L55,16 C54.4,16 54,15.6 54,15 C54,14.4 54.4,14 55,14 L74,14 C75.7,14 77,15.3 77,17 L77,23 C77,24.7 75.7,26 74,26 Z" id="Path" fill="#0F395A"></path>
            <rect id="Rectangle" fill="#AFC3D7" x="84" y="39" width="14" height="1"></rect>
            <path d="M73,16 L73,21 C73,22.1 72.1,23 71,23 L60.4,23 C59.5,23 58.6,23.4 58,24 L58,24 L73,24 L74,24 C74.6,24 75,23.6 75,23 L75,17 C75,16.4 74.6,16 74,16 L73,16 Z" id="Path" fill="#FFCB5D"></path>
            <circle id="Oval" fill="#E58824" cx="91" cy="47" r="1"></circle>
            <circle id="Oval" fill="#E58824" cx="91" cy="51" r="1"></circle>
            <circle id="Oval" fill="#E58824" cx="91" cy="49" r="1"></circle>
            <rect id="Rectangle" fill="#AFC3D7" x="96" y="42" width="1" height="1"></rect>
            <rect id="Rectangle" fill="#AFC3D7" x="85" y="42" width="1" height="1"></rect>
            <rect id="Rectangle" fill="#AFC3D7" x="77" y="20" width="6" height="1"></rect>
            <g id="Group" transform="translate(82.000000, 15.000000)">
                <circle id="Oval" fill="#D3E2EB" cx="5" cy="5" r="3"></circle>
                <path d="M5,10 C2.2,10 0,7.8 0,5 C0,2.2 2.2,0 5,0 C7.8,0 10,2.2 10,5 C10,7.8 7.8,10 5,10 Z M5,2 C3.3,2 2,3.3 2,5 C2,6.7 3.3,8 5,8 C6.7,8 8,6.7 8,5 C8,3.3 6.7,2 5,2 Z" id="Shape" fill="#0F395A"></path>
            </g>
            <circle id="Oval" fill="#0F395A" cx="87" cy="20" r="1"></circle>
            <g id="Group" transform="translate(158.000000, 53.000000)">
                <g id="Shape">
                    <path d="M2.9,14.4 C3.6,14.5 4.2,15.1 4.4,15.8 C4.6,16.3 4.7,16.7 5,17.2 C5.3,17.8 5.3,18.6 4.9,19.2 L4.4,20 C4.1,20.5 4.1,21.1 4.6,21.5 L4.6,21.5 C5,21.9 5.7,22 6.1,21.7 L6.9,21.2 C7.5,20.8 8.3,20.8 8.9,21.1 C9.3,21.3 9.8,21.5 10.3,21.7 C11,21.9 11.5,22.5 11.7,23.2 L11.9,24.1 C12,24.7 12.5,25.1 13.1,25.1 L13.1,25.1 C13.7,25.1 14.2,24.7 14.3,24.1 L14.5,23.2 C14.6,22.5 15.2,21.9 15.9,21.7 C16.4,21.5 16.8,21.4 17.3,21.1 C17.9,20.8 18.7,20.8 19.3,21.2 L20.1,21.7 C20.6,22 21.2,22 21.6,21.5 L21.6,21.5 C22,21.1 22.1,20.4 21.8,20 L21.3,19.2 C20.9,18.6 20.9,17.8 21.2,17.2 C21.4,16.8 21.6,16.3 21.8,15.8 C22,15.1 22.6,14.6 23.3,14.4 L24.2,14.2 C24.8,14.1 25.2,13.6 25.2,13 L25.2,13 C25.2,12.4 24.8,11.9 24.2,11.8 L23.3,11.6 C22.6,11.5 22,10.9 21.8,10.2 C21.6,9.7 21.5,9.3 21.2,8.8 C20.9,8.2 20.9,7.4 21.3,6.8 L21.8,6 C22.1,5.5 22.1,4.9 21.6,4.5 L21.6,4.5 C21.2,4.1 20.5,4 20.1,4.3 L19.3,4.8 C18.7,5.2 17.9,5.2 17.3,4.9 C16.9,4.7 16.4,4.5 15.9,4.3 C15.2,4.1 14.7,3.5 14.5,2.8 L14.3,1.9 C14.2,1.3 13.7,0.9 13.1,0.9 L13.1,0.9 C12.5,0.9 12,1.3 11.9,1.9 L11.7,2.8 C11.6,3.5 11,4.1 10.3,4.3 C9.8,4.5 9.4,4.6 8.9,4.9 C8.3,5.2 7.5,5.2 6.9,4.8 L6.1,4.3 C5.6,4 5,4 4.6,4.5 L4.6,4.5 C4.2,4.9 4.1,5.6 4.4,6 L4.9,6.8 C5.3,7.4 5.3,8.2 5,8.8 C4.8,9.2 4.6,9.7 4.4,10.2 C4.2,10.9 3.6,11.4 2.9,11.6 L2,11.8 C1.4,11.9 1,12.4 1,13 L1,13 C1,13.6 1.4,14.1 2,14.2 L2.9,14.4 Z M13,8 C15.8,8 18,10.2 18,13 C18,15.8 15.8,18 13,18 C10.2,18 8,15.8 8,13 C8,10.2 10.2,8 13,8 Z" fill="#66869B"></path>
                    <path d="M13,26 C11.9,26 11,25.2 10.8,24.2 L10.6,23.3 C10.5,22.9 10.3,22.7 9.9,22.6 C9.4,22.4 8.9,22.2 8.4,22 C8.1,21.8 7.7,21.8 7.4,22 L6.6,22.5 C5.7,23.1 4.5,23 3.8,22.2 C3.1,21.5 2.9,20.3 3.5,19.4 L4,18.6 C4.2,18.3 4.2,17.9 4,17.6 C3.8,17.1 3.5,16.6 3.4,16.1 C3.3,15.8 3,15.5 2.7,15.4 L2.7,15.4 L1.8,15.2 C0.8,15 0,14.1 0,13 C0,11.9 0.8,11 1.8,10.8 L2.7,10.6 C3.1,10.5 3.3,10.3 3.4,9.9 C3.6,9.4 3.8,8.9 4,8.4 C4.2,8.1 4.2,7.7 4,7.4 L3.5,6.6 C2.9,5.7 3,4.5 3.8,3.8 C4.5,3.1 5.7,2.9 6.6,3.5 L7.4,4 C7.7,4.2 8.1,4.2 8.4,4 C8.9,3.7 9.4,3.5 9.9,3.4 C10.2,3.3 10.5,3 10.6,2.7 L10.8,1.8 C11,0.8 11.9,0 13,0 C14.1,0 15,0.8 15.2,1.8 L15.4,2.7 C15.5,3.1 15.7,3.3 16.1,3.4 C16.6,3.6 17.1,3.8 17.6,4 C17.9,4.2 18.3,4.2 18.6,4 L19.4,3.5 C20.3,2.9 21.5,3 22.2,3.8 C22.9,4.5 23.1,5.7 22.5,6.6 L22,7.4 C21.8,7.7 21.8,8.1 22,8.4 C22.3,8.9 22.5,9.4 22.6,9.9 C22.7,10.2 23,10.5 23.3,10.6 L24.2,10.8 C25.2,11 26,11.9 26,13 C26,14.1 25.2,15 24.2,15.2 L23.3,15.4 C22.9,15.5 22.7,15.7 22.6,16.1 C22.4,16.6 22.2,17.1 22,17.6 C21.8,17.9 21.8,18.3 22,18.6 L22.5,19.4 C23.1,20.3 23,21.5 22.2,22.2 C21.5,22.9 20.3,23.1 19.4,22.5 L18.6,22 C18.3,21.8 17.9,21.8 17.6,22 C17.1,22.3 16.6,22.5 16.1,22.6 C15.8,22.7 15.5,23 15.4,23.3 L15.2,24.2 C15,25.2 14.1,26 13,26 Z M8,19.8 C8.5,19.8 8.9,19.9 9.4,20.1 C9.8,20.3 10.2,20.5 10.6,20.6 C11.6,20.9 12.4,21.8 12.6,22.9 L12.8,23.8 C12.8,24 13.2,24 13.2,23.8 L13.4,22.9 C13.6,21.8 14.4,21 15.4,20.6 C15.8,20.5 16.2,20.3 16.6,20.1 C17.6,19.6 18.7,19.7 19.6,20.3 L20.4,20.8 C20.5,20.9 20.6,20.8 20.7,20.8 C20.8,20.7 20.8,20.6 20.7,20.5 L20.2,19.7 C19.6,18.8 19.5,17.6 20,16.7 C20.2,16.3 20.4,15.9 20.5,15.5 C20.8,14.5 21.7,13.7 22.8,13.5 L23.7,13.3 C23.8,13.3 23.9,13.2 23.9,13.1 C23.9,13 23.8,12.9 23.7,12.9 L22.8,12.7 C21.7,12.5 20.9,11.7 20.5,10.7 C20.4,10.3 20.2,9.9 20,9.5 C19.5,8.5 19.6,7.4 20.2,6.5 L20.7,5.7 C20.8,5.6 20.7,5.5 20.7,5.4 C20.6,5.3 20.5,5.3 20.4,5.4 L19.6,5.9 C18.7,6.5 17.5,6.6 16.6,6.1 C16.2,5.9 15.8,5.7 15.4,5.6 C14.4,5.3 13.6,4.4 13.4,3.3 L13.2,2.4 C13.2,2.2 12.8,2.2 12.8,2.4 L12.6,3.3 C12.4,4.4 11.6,5.2 10.6,5.6 C10.2,5.7 9.8,5.9 9.4,6.1 C8.4,6.6 7.3,6.5 6.4,5.9 L5.6,5.4 C5.5,5.3 5.4,5.4 5.3,5.4 C5.2,5.5 5.2,5.6 5.3,5.7 L5.8,6.5 C6.4,7.4 6.5,8.6 6,9.5 C5.8,9.9 5.6,10.3 5.5,10.7 C5.2,11.7 4.3,12.5 3.2,12.7 L2.3,12.9 C2.2,12.9 2.1,13 2.1,13.1 C2.1,13.2 2.2,13.3 2.3,13.3 L3.2,13.5 C4.3,13.7 5.1,14.5 5.5,15.5 C5.6,15.9 5.8,16.3 6,16.7 C6.5,17.7 6.4,18.8 5.8,19.7 L5.3,20.5 C5.2,20.6 5.3,20.7 5.3,20.8 C5.4,20.9 5.5,20.9 5.6,20.8 L6.4,20.3 C6.8,19.9 7.4,19.8 8,19.8 Z M13,19 C9.7,19 7,16.3 7,13 C7,9.7 9.7,7 13,7 C16.3,7 19,9.7 19,13 C19,16.3 16.3,19 13,19 Z M13,9 C10.8,9 9,10.8 9,13 C9,15.2 10.8,17 13,17 C15.2,17 17,15.2 17,13 C17,10.8 15.2,9 13,9 Z" fill="#0F395A"></path>
                </g>
                <path d="M23.8,12.8 L22.9,12.6 C21.8,12.4 21,11.6 20.6,10.5 C20.5,10.1 20.3,9.7 20.1,9.3 C19.6,8.3 19.7,7.2 20.3,6.3 L20.8,5.5 C20.9,5.4 20.8,5.3 20.8,5.2 L18.6,7.4 C18.2,7.8 18.2,8.3 18.5,8.7 C19.7,10.2 20.2,12.2 19.8,14.4 C19.3,17.2 17.1,19.4 14.3,19.9 C12.2,20.3 10.1,19.7 8.6,18.6 C8.2,18.3 7.6,18.3 7.3,18.7 L5.1,20.9 C5.2,21 5.3,21 5.4,20.9 L6.2,20.4 C6.7,20.1 7.3,19.9 7.9,19.9 C8.4,19.9 8.8,20 9.3,20.2 C9.7,20.4 10.1,20.6 10.5,20.7 C11.6,21 12.4,21.9 12.6,23 L12.8,23.9 C12.8,24.1 13.2,24.1 13.2,23.9 L13.4,23 C13.6,21.9 14.4,21.1 15.5,20.7 C15.9,20.6 16.3,20.4 16.7,20.2 C17.7,19.7 18.8,19.8 19.7,20.4 L20.5,20.9 C20.6,21 20.7,20.9 20.8,20.9 C20.9,20.8 20.9,20.7 20.8,20.6 L20.3,19.8 C19.7,18.9 19.6,17.7 20.1,16.8 C20.3,16.4 20.5,16 20.6,15.6 C20.9,14.5 21.8,13.7 22.9,13.5 L23.8,13.3 C23.9,13.3 24,13.2 24,13.1 C24,13 23.9,12.8 23.8,12.8 Z" id="Path" fill="#567789"></path>
                <path d="M7,13 C7,9.7 9.7,7 13,7 C14.7,7 16.2,7.7 17.2,8.8 C17.2,8.8 18,8 17,7.3 C15.9,6.5 14.5,6 13,6 C9.1,6 6,9.1 6,13 C6,14.5 6.4,15.9 7.3,17 C8,18 8.8,17.2 8.8,17.2 C7.7,16.2 7,14.7 7,13 Z" id="Path" fill="#567789"></path>
            </g>
        </g>
        <g id="python" transform="translate(95.000000, 70.000000)" fill-rule="nonzero">
            <path d="M10.0408458,0 C4.90584379,3.89925783e-07 5.22650641,2.37001765 5.22650641,2.37001765 L5.23223095,4.82533157 L10.1324385,4.82533157 L10.1324385,5.56253501 L3.28588683,5.56253501 C3.28588683,5.56253501 0,5.16592667 0,10.6803109 C-3.66370658e-07,16.194694 2.8679953,15.9991423 2.8679953,15.9991423 L4.57963322,15.9991423 L4.57963322,13.4402543 C4.57963322,13.4402543 4.48737156,10.3878666 7.40183219,10.3878666 C10.3162925,10.3878666 12.2619679,10.3878666 12.2619679,10.3878666 C12.2619679,10.3878666 14.9925742,10.4348448 14.9925742,7.57918242 C14.9925742,4.72352078 14.9925742,2.85742488 14.9925742,2.85742488 C14.9925742,2.85742449 15.4071556,0 10.0408458,0 Z M7.33886223,1.65109199 C7.82639698,1.6510916 8.22044163,2.07047101 8.22044163,2.58935091 C8.22044199,3.1082308 7.82639698,3.52760982 7.33886223,3.52760982 C6.85132749,3.52761021 6.45728284,3.1082308 6.45728284,2.58935091 C6.45728247,2.07047101 6.85132749,1.65109199 7.33886223,1.65109199 Z" id="path8615" fill="url(#linearGradient-1)"></path>
            <path d="M9.95915441,21 C15.0941578,21 14.7734937,18.6299825 14.7734937,18.6299825 L14.7677692,16.1746688 L9.86756175,16.1746688 L9.86756175,15.4374655 L16.7141132,15.4374655 C16.7141132,15.4374655 20,15.8340726 20,10.319688 C20.0000018,4.80530603 17.1320048,5.0008577 17.1320048,5.0008577 L15.4203669,5.0008577 L15.4203669,7.55974485 C15.4203669,7.55974485 15.51263,10.6121324 12.598168,10.6121324 C9.68370743,10.6121324 7.73803199,10.6121324 7.73803199,10.6121324 C7.73803199,10.6121324 5.00742575,10.5651541 5.00742575,13.4208182 C5.00742575,16.2764785 5.00742575,18.1425754 5.00742575,18.1425754 C5.00742575,18.1425754 4.59284439,21 9.95915441,21 Z M12.6611379,19.3489082 C12.173603,19.3489082 11.7795586,18.9295294 11.7795586,18.4106493 C11.7795586,17.8917693 12.173603,17.4723905 12.6611379,17.4723905 C13.1486729,17.4723905 13.5427173,17.8917693 13.5427173,18.4106493 C13.5427192,18.9295294 13.1486729,19.3489082 12.6611379,19.3489082 Z" id="path8620" fill="url(#linearGradient-2)"></path>
        </g>
    </g>
</svg>