<svg id="Layer_1" data-name="Layer 1" xmlns="http://www.w3.org/2000/svg" viewBox="0 0 291.38 243.68"><defs><style>.cls-1{fill:#12739e;}.cls-2{fill:#fff;}</style></defs><title>logo-icononly</title><path class="cls-1" d="M219.79,19.85a11.35,11.35,0,0,0-8.08-3.35h-132a11.35,11.35,0,0,0-8.08,3.35L10.69,80.75a11.43,11.43,0,0,0,0,16.16L137.6,223.83a11.44,11.44,0,0,0,16.16,0L280.68,96.91a11.42,11.42,0,0,0,0-16.16Z"/><path class="cls-2" d="M196.66,96.36c0,12.49,0,25,0,37.46,0,2.7-1,2.68-4.63,2.68-6.95,0-12.95,0-19.44,0-3.4,0-4.48.21-4.48-2.27.06-21.51,0-43,.1-64.54a5.86,5.86,0,0,1,1.44-3.54c2.73-3,5.61-6,8.59-8.75A5,5,0,0,1,181.56,56c4.13-.17,8.27,0,12.41-.11,2.08-.06,2.73.71,2.72,2.76C196.62,71.24,196.66,83.8,196.66,96.36Z"/><path class="cls-2" d="M162.22,75.21a.93.93,0,0,1,1.55.64c0,.37,0,.68,0,1,0,9.55.06,19.11-.06,28.66a6.5,6.5,0,0,1-1.52,3.75c-4.51,4.72-9.23,9.25-13.79,13.93-1.28,1.32-2.12,1.41-3.47,0C128.78,107,112.52,90.78,96.36,74.49a6.24,6.24,0,0,1-1.59-3.74c-.2-4,0-8.12-.09-12.18a2.59,2.59,0,0,1,2.67-2.64q6.09.14,12.2,0a5.32,5.32,0,0,1,4.16,1.77q15.36,15.45,30.79,30.82c2.89,2.88,2,1.9,7.29-2.79a103.17,103.17,0,0,0,9.06-9.17A15.94,15.94,0,0,1,162.22,75.21Z"/><path class="cls-2" d="M94.82,83.66c.12-.73,1-2.9,1.54-2.41s.73.65,1,1c8.08,8,16.19,15.94,24.18,24,.87.89,1.62,4.49,1.65,5.74.16,7.37,0,14.75.12,22.12,0,2-.67,2.55-2.61,2.53q-11.73-.15-23.47,0c-2,0-2.6-.73-2.6-2.64,0-16.4,0-32.8,0-49.21A8,8,0,0,1,94.82,83.66Z"/></svg>